<svg width="900" height="300" viewBox="0 0 900 300" xmlns="http://www.w3.org/2000/svg">
  <style>
    .spiral-dot { fill: #32CD32; }
    .brand-name { font-family: Arial, sans-serif; font-weight: bold; fill: #32CD32; font-size: 60px; }
    .tagline { font-family: Arial, sans-serif; fill: #32CD32; font-size: 30px; }
  </style>
  <g transform="translate(150,150)">
<circle class="spiral-dot" cx="0.00" cy="0.00" r="2.00" />
<circle class="spiral-dot" cx="3.56" cy="2.59" r="2.25" />
<circle class="spiral-dot" cx="2.72" cy="8.37" r="2.50" />
<circle class="spiral-dot" cx="-4.08" cy="12.55" r="2.75" />
<circle class="spiral-dot" cx="-14.23" cy="10.34" r="3.00" />
<circle class="spiral-dot" cx="-21.99" cy="0.00" r="3.25" />
<circle class="spiral-dot" cx="-21.35" cy="-15.51" r="3.50" />
<circle class="spiral-dot" cx="-9.51" cy="-29.28" r="3.75" />
<circle class="spiral-dot" cx="10.87" cy="-33.46" r="4.00" />
<circle class="spiral-dot" cx="32.02" cy="-23.27" r="4.25" />
<circle class="spiral-dot" cx="43.98" cy="-0.00" r="4.50" />
<circle class="spiral-dot" cx="39.14" cy="28.44" r="4.75" />
<circle class="spiral-dot" cx="16.31" cy="50.20" r="5.00" />
<circle class="spiral-dot" cx="-17.67" cy="54.38" r="5.25" />
<circle class="spiral-dot" cx="-49.82" cy="36.19" r="5.50" />
<circle class="spiral-dot" cx="-65.97" cy="0.00" r="5.75" />
<circle class="spiral-dot" cx="-56.93" cy="-41.36" r="6.00" />
<circle class="spiral-dot" cx="-23.11" cy="-71.11" r="6.25" />
<circle class="spiral-dot" cx="24.46" cy="-75.29" r="6.50" />
<circle class="spiral-dot" cx="67.61" cy="-49.12" r="6.75" />
<circle class="spiral-dot" cx="87.96" cy="-0.00" r="7.00" />
<circle class="spiral-dot" cx="74.72" cy="54.29" r="7.25" />
<circle class="spiral-dot" cx="29.90" cy="92.03" r="7.50" />
<circle class="spiral-dot" cx="-31.26" cy="96.21" r="7.75" />
<circle class="spiral-dot" cx="-85.40" cy="62.05" r="8.00" />
</g>
<text x="340" y="140" class="brand-name">LAYR0</text>
<text x="340" y="190" class="tagline">Innovations</text>
</svg>